HIERARCHY
ROOT Hips
{
  OFFSET -35.4901 99.2528 17.4586
  CHANNELS 6 Xposition Yposition Zposition Zrotation Xrotation Yrotation
  JOINT LeftUpLeg
  {
    OFFSET 8.64259 1.95398 -2.38835
    CHANNELS 3 Zrotation Xrotation Yrotation
    JOINT LeftLeg
    {
      OFFSET 43.7702 0 0
      CHANNELS 3 Zrotation Xrotation Yrotation
      JOINT LeftFoot
      {
        OFFSET 40.6238 0 0
        CHANNELS 3 Zrotation Xrotation Yrotation
        JOINT LeftToeBase
        {
          OFFSET 12.7242 0 0
          CHANNELS 3 Zrotation Xrotation Yrotation
          End Site
          {
            OFFSET 0 0 0
          }
        }
      }
    }
  }
  JOINT RightUpLeg
  {
    OFFSET -8.2249 1.95398 -2.59336
    CHANNELS 3 Zrotation Xrotation Yrotation
    JOINT RightLeg
    {
      OFFSET 43.5653 0 0
      CHANNELS 3 Zrotation Xrotation Yrotation
      JOINT RightFoot
      {
        OFFSET 40.6238 0 0
        CHANNELS 3 Zrotation Xrotation Yrotation
        JOINT RightToeBase
        {
          OFFSET 12.7242 0 0
          CHANNELS 3 Zrotation Xrotation Yrotation
          End Site
          {
            OFFSET 0 0 0
          }
        }
      }
    }
  }
  JOINT Spine
  {
    OFFSET 0.165834 0.87714 6.61349
    CHANNELS 3 Zrotation Xrotation Yrotation
    JOINT Spine1
    {
      OFFSET 7.38963 1.71661e-005 0
      CHANNELS 3 Zrotation Xrotation Yrotation
      JOINT Spine2
      {
        OFFSET 11.9445 1.14441e-005 0
        CHANNELS 3 Zrotation Xrotation Yrotation
        JOINT Spine3
        {
          OFFSET 14.7254 4.19617e-005 0
          CHANNELS 3 Zrotation Xrotation Yrotation
          JOINT Spine4
          {
            OFFSET 10.9679 0 0
            CHANNELS 3 Zrotation Xrotation Yrotation
            JOINT RightShoulder
            {
              OFFSET 2.46616 -1.6653 3.69651
              CHANNELS 3 Zrotation Xrotation Yrotation
              JOINT RightArm
              {
                OFFSET 13.0012 0 0
                CHANNELS 3 Zrotation Xrotation Yrotation
                JOINT RightForeArm
                {
                  OFFSET 28.7848 1.52588e-005 0
                  CHANNELS 3 Zrotation Xrotation Yrotation
                  JOINT RightHand
                  {
                    OFFSET 26.5688 1.52588e-005 0
                    CHANNELS 3 Zrotation Xrotation Yrotation
                    End Site
                    {
                      OFFSET 0 0 0
                    }
                  }
                }
              }
            }
            JOINT LeftShoulder
            {
              OFFSET 2.38034 -1.29275 -3.7523
              CHANNELS 3 Zrotation Xrotation Yrotation
              JOINT LeftArm
              {
                OFFSET 16.3182 6.10351e-005 0
                CHANNELS 3 Zrotation Xrotation Yrotation
                JOINT LeftForeArm
                {
                  OFFSET 27.0901 0 0
                  CHANNELS 3 Zrotation Xrotation Yrotation
                  JOINT LeftHand
                  {
                    OFFSET 24.5451 1.52588e-005 0
                    CHANNELS 3 Zrotation Xrotation Yrotation
                    End Site
                    {
                      OFFSET 0 0 0
                    }
                  }
                }
              }
            }
            JOINT Neck
            {
              OFFSET 5.0226 -0.0266342 0
              CHANNELS 3 Zrotation Xrotation Yrotation
              JOINT Head
              {
                OFFSET 6.69364 2.86102e-005 0
                CHANNELS 3 Zrotation Xrotation Yrotation
                End Site
                {
                  OFFSET 0 0 0
                }
              }
            }
          }
        }
      }
    }
  }
}
MOTION
Frames:	9
Frame Time:	0.0416667
66.9668 83.9965 34.0184 92.2636 -34.55 103.167 -163.301 43.6984 79.3021 -84.968 12.9317 0.0981512 77.3734 8.50517 4.34149 26.5956 7.77017 -12.2967 163.571 -3.89521 80.5775 -44.383 -10.0402 1.51602 83.0345 -10.253 -0.569314 47.7922 -0.351395 -3.34037 2.88884 8.00617 -90.7598 10.9168 5.40035 -2.0212 -0.744892 5.30616 -2.25745 -23.3696 5.75736 -0.299699 -3.35695 5.75736 -0.299698 92.6678 -16.8801 -106.456 27.8129 -0.715937 -26.9186 -41.3634 2.25925 -99.7409 -27.4228 2.62047 -22.0523 -81.0537 -45.8301 91.9415 -38.2286 18.4854 53.7297 26.17 -22.1166 -101.221 0.608421 -0.583237 -23.1369 26.8193 1.21173 2.55175 -12.2611 0.0600378 1.61649 
71.7865 85.9596 38.3122 90.9236 -31.6296 102.97 -163.543 42.6706 79.6869 -74.2432 12.4483 -3.35695 78.5261 8.86348 3.94711 23.168 8.49062 -12.2845 163.685 -10.2322 81.843 -36.8159 -9.8277 2.55606 70.9408 -4.54903 -0.446532 54.8838 -1.25736 -0.659413 3.11616 7.91051 -90.7576 11.1157 5.85125 -2.07539 -0.544116 5.75424 -2.33159 -23.1849 6.2035 -0.214465 -3.17224 6.20351 -0.214466 93.2756 -14.3825 -106.127 31.0205 -2.57081 -28.4695 -39.679 2.23202 -101.27 -28.8607 2.42136 -19.7757 -82.1114 -43.291 90.0325 -42.2521 17.719 58.2385 25.6843 -23.2863 -101.936 1.32957 -0.6676 -22.0866 30.7156 -0.539047 2.66634 -15.9224 -1.72713 0.964309 
77.1205 87.8554 42.6416 89.374 -28.5263 102.635 -164.23 40.304 80.2398 -63.097 11.4855 -6.7915 76.3061 7.60365 3.92724 23.3055 7.01344 -10.1299 165.354 -15.3739 83.8699 -31.1769 -9.69424 2.55741 61.5138 0.0889906 1.052 49.9695 -1.68523 3.3245 3.11883 7.77667 -90.6327 11.3806 5.91102 -1.85483 -0.278551 5.82364 -2.11395 -22.9221 6.19421 0.0140738 -2.9094 6.1942 0.0140678 93.1175 -14.3126 -106.583 31.5115 -7.80364 -28.8439 -45.2499 4.45193 -100.482 -29.6973 2.23001 -19.2865 -82.8763 -39.8971 88.3861 -45.9778 15.7568 60.7223 24.7004 -23.9187 -103.365 2.80124 -0.889758 -21.7452 34.2081 -2.11405 0.7421 -18.9043 -2.46218 0.722765 
82.1204 89.0366 46.6668 86.524 -25.8701 101.877 -165.541 39.3189 80.6033 -53.3219 10.4913 -9.08939 73.8174 6.25758 3.94902 21.4288 8.40582 -11.6305 168.337 -16.6355 87.2227 -30.8163 -12.2608 1.40724 61.3146 0.301783 0.731283 27.3254 -1.19694 3.36366 3.02013 7.54558 -90.4277 11.8334 5.80507 -1.47155 0.174317 5.73469 -1.72637 -22.4654 5.97802 0.34741 -2.45278 5.978 0.34741 92.8388 -14.9882 -106.963 31.2451 -13.7763 -28.7336 -48.1558 6.93284 -99.1174 -29.7146 2.16113 -19.227 -83.7682 -37.824 86.5818 -48.2799 14.6095 61.6847 23.6909 -24.3034 -104.705 5.22612 -1.29454 -22.3593 36.3884 -3.32081 -1.45075 -19.4505 -2.45774 -0.133579 
86.8426 89.2685 50.15 84.4251 -24.3235 101.941 -166.924 38.2499 81.6282 -45.7511 10.6539 -10.1731 70.601 4.57525 3.75317 18.0193 7.91863 -9.98746 170.578 -15.5136 89.6822 -35.4789 -15.5688 0.415592 64.0929 -1.34063 -0.284319 20.1304 -1.54055 4.42034 2.90541 7.39112 -90.3874 12.1388 5.59229 -1.39133 0.478873 5.5256 -1.63679 -22.1533 5.75107 0.359303 -2.14069 5.75104 0.359309 92.9799 -15.2873 -106.447 29.6733 -21.9234 -29.0283 -50.071 7.09822 -95.3921 -29.2086 2.15298 -19.4655 -84.7236 -39.0557 85.1086 -48.024 12.2113 60.1832 24.797 -24.1418 -105.673 7.32255 -1.58059 -21.8054 37.2485 -3.43666 -2.1359 -18.3805 -2.17194 -0.54942 
91.3945 89.0292 53.3092 84.3577 -23.5031 103.079 -168.846 35.047 83.4031 -40.2053 10.6605 -9.58439 68.8755 3.72814 3.16864 16.2514 7.91148 -9.47777 170.841 -13.7809 90.0002 -44.4289 -16.7456 0.303216 66.4479 -2.78579 -1.74437 23.2924 -2.77073 7.23409 2.73682 7.3787 -90.4585 12.1625 5.22323 -1.49491 0.500955 5.15239 -1.72388 -22.1189 5.43039 0.14859 -2.10622 5.43036 0.148576 92.1611 -17.579 -107.368 28.9849 -28.5628 -25.9814 -49.5589 4.58431 -92.1913 -30.0181 2.21116 -19.0615 -84.3389 -41.5166 86.1346 -46.7336 12.7777 56.1059 26.5404 -23.4722 -104.208 8.89794 -1.72362 -20.7985 38.1081 -3.12311 -3.45711 -18.6558 -1.39547 0.642569 
96.2975 88.6898 56.2496 85.7317 -21.8001 104.861 -168.538 31.5666 84.4898 -44.2811 13.8841 -9.57428 73.5701 6.2826 6.07508 8.48406 15.4205 -16.0539 169.973 -11.8069 89.3796 -56.2736 -11.1686 0.665486 69.0227 -4.05682 -2.69477 17.9803 -2.3488 6.12108 2.42428 7.5256 -90.6186 11.8631 4.52991 -1.71758 0.198648 4.44993 -1.9156 -22.3993 4.83622 -0.273804 -2.38661 4.83624 -0.273792 91.2655 -19.8742 -108.388 31.1793 -32.0803 -20.1938 -47.9031 -1.98569 -88.1562 -35.561 1.88282 -15.359 -84.1174 -43.6821 86.7954 -45.283 13.0702 49.0434 29.2246 -21.5513 -101.037 9.27034 -1.76337 -20.6639 37.1725 -2.18813 -4.84248 -17.6192 -0.0038999 1.50483 
101.103 88.1987 59.0336 87.3535 -19.9837 105.84 -168.276 26.8125 85.4689 -48.0104 15.0233 -9.32269 83.2728 10.2924 2.48335 -6.94419 16.5354 -12.5511 169.561 -7.70902 89.2174 -70.6859 -0.931574 0.338241 72.5685 -6.13149 -2.84722 13.6906 -1.73531 4.94523 2.0397 7.70622 -90.6496 11.4926 3.75452 -1.67749 -0.174203 3.67704 -1.84126 -22.7518 4.08484 -0.469897 -2.73913 4.08482 -0.469903 90.479 -22.4174 -108.966 35.0028 -32.4111 -12.6241 -45.9813 -2.50519 -83.2504 -32.5539 2.47146 -18.7835 -84.0065 -45.6045 87.2212 -42.9469 13.2661 40.9413 28.5566 -18.851 -98.9483 10.0122 -1.74149 -19.51 34.2481 -1.44028 -7.33956 -15.069 1.56418 2.72859 
105.205 87.3141 61.6734 86.9817 -17.3087 104.391 -168.534 23.8805 84.2993 -51.5527 17.6464 -8.54815 87.8141 12.9211 3.44999 -7.76709 9.18595 -5.75459 169.559 0.163631 87.7824 -85.7292 7.19147 -0.211587 76.2688 -8.60916 -3.2098 10.5297 -0.451973 2.70027 1.51084 7.72398 -90.435 11.4422 2.80291 -1.15061 -0.226324 2.74958 -1.27293 -22.7853 3.01905 -0.254317 -2.77268 3.01906 -0.254318 90.0971 -26.1202 -108.132 37.85 -30.6931 -4.64047 -45.5371 -3.77313 -80.5865 -30.158 2.22575 -18.9781 -83.7761 -48.3531 87.9057 -38.467 15.8995 30.9984 26.3116 -16.9899 -97.6574 8.86305 -1.55016 -19.1279 31.9925 -0.913062 -9.59134 -12.9869 2.84745 3.36909 
